<?xml version="1.0" standalone="no"?><!DOCTYPE svg PUBLIC "-//W3C//DTD SVG 1.1//EN" "http://www.w3.org/Graphics/SVG/1.1/DTD/svg11.dtd"><svg class="icon" width="200px" height="200.00px" viewBox="0 0 1024 1024" version="1.1" xmlns="http://www.w3.org/2000/svg"><path d="M741.180588 568.826479a227.583456 227.583456 0 1 0 227.319132 227.319132 227.847781 227.847781 0 0 0-227.319132-227.319132z m111.809294 362.124664H626.199399a13.480553 13.480553 0 0 1-11.894605-5.815141 14.009202 14.009202 0 0 1 0-13.744878 13.480553 13.480553 0 0 1 11.894605-6.872439h226.790483a13.480553 13.480553 0 0 1 11.894606 6.872439 14.009202 14.009202 0 0 1 0 13.744878 13.480553 13.480553 0 0 1-11.894606 6.872439z m20.088668-58.680055a13.216229 13.216229 0 0 1-13.216229 13.216228h-237.892115a13.216229 13.216229 0 0 1-13.480553-13.216228v-39.120037a13.480553 13.480553 0 0 1 13.480553-13.216229h74.539529a16.388123 16.388123 0 0 0 13.744878-12.423255 17.181097 17.181097 0 0 0-6.34379-17.709746 71.631959 71.631959 0 1 1 73.217907 0 16.652448 16.652448 0 0 0 10.837307 29.604352h71.896284a13.216229 13.216229 0 0 1 13.216229 13.216229z m0 0" fill="#ffffff" /><path d="M737.21572 511.468047a253.487265 253.487265 0 0 1 113.92389 22.996238V74.275205A74.803854 74.803854 0 0 0 776.600081 0H129.533529A74.275205 74.275205 0 0 0 55.258324 74.275205v817.820225a74.539529 74.539529 0 0 0 74.275205 74.275205H509.896588a292.607301 292.607301 0 0 1-56.829783-170.489349A281.505669 281.505669 0 0 1 737.21572 511.468047zM257.730946 158.594743h390.671717a34.362194 34.362194 0 0 1 0 68.724389H257.730946a34.362194 34.362194 0 0 1 0-68.724389z m0 132.162286h390.671717a34.362194 34.362194 0 0 1 0 68.460064H257.730946a34.362194 34.362194 0 0 1 0-68.460064z m-31.983273 163.881235A33.833545 33.833545 0 0 1 257.730946 422.919315h223.882912a34.626519 34.626519 0 0 1 3.43622 68.460064h-227.319132a35.419493 35.419493 0 0 1-31.983273-36.741115z m0 0" fill="#ffffff" /></svg>