<?xml version="1.0" standalone="no"?><!DOCTYPE svg PUBLIC "-//W3C//DTD SVG 1.1//EN" "http://www.w3.org/Graphics/SVG/1.1/DTD/svg11.dtd"><svg class="icon" width="200px" height="200.00px" viewBox="0 0 1024 1024" version="1.1" xmlns="http://www.w3.org/2000/svg"><path d="M576 127.41C576 92.39 604.862 64 639.41 64h257.18C931.61 64 960 92.862 960 127.41v257.18c0 35.02-28.862 63.41-63.41 63.41H639.41c-35.02 0-63.41-28.862-63.41-63.41V127.41z m64 0v257.18c0-0.562-0.028-0.59-0.59-0.59h257.18c-0.562 0-0.59 0.028-0.59 0.59V127.41c0 0.562 0.028 0.59 0.59 0.59H639.41c0.562 0 0.59-0.028 0.59-0.59zM704 192h128v128H704V192zM64 639.41C64 604.39 92.862 576 127.41 576h257.18c35.02 0 63.41 28.862 63.41 63.41v257.18c0 35.02-28.862 63.41-63.41 63.41H127.41C92.39 960 64 931.138 64 896.59V639.41z m64 0v257.18c0-0.562-0.028-0.59-0.59-0.59h257.18c-0.562 0-0.59 0.028-0.59 0.59V639.41c0 0.562 0.028 0.59 0.59 0.59H127.41c0.562 0 0.59-0.028 0.59-0.59zM192 704h128v128H192V704zM64 127.41C64 92.39 92.862 64 127.41 64h257.18C419.61 64 448 92.862 448 127.41v257.18c0 35.02-28.862 63.41-63.41 63.41H127.41C92.39 448 64 419.138 64 384.59V127.41z m64 0v257.18c0-0.562-0.028-0.59-0.59-0.59h257.18c-0.562 0-0.59 0.028-0.59 0.59V127.41c0 0.562 0.028 0.59 0.59 0.59H127.41c0.562 0 0.59-0.028 0.59-0.59zM192 192h128v128H192V192z m544 640c53.02 0 96-42.98 96-96s-42.98-96-96-96-96 42.98-96 96 42.98 96 96 96z m0 64c-88.366 0-160-71.634-160-160s71.634-160 160-160 160 71.634 160 160-71.634 160-160 160z m109.255-96l140.04 140.04c12.271 12.271 11.724 32.716-0.408 44.847-12.497 12.497-32.94 12.315-44.848 0.407L800 845.254 845.255 800z" fill="#2c2c2c" /></svg>