<?xml version="1.0" standalone="no"?><!DOCTYPE svg PUBLIC "-//W3C//DTD SVG 1.1//EN" "http://www.w3.org/Graphics/SVG/1.1/DTD/svg11.dtd"><svg class="icon" width="200px" height="200.00px" viewBox="0 0 1024 1024" version="1.1" xmlns="http://www.w3.org/2000/svg"><path d="M194.239244 551.577914v55.283436h59.680982v-55.283436h34.552147V691.042945h-35.808589v-54.655215h-58.42454v55.911657h-35.180368V551.577914zM368.256422 551.577914h38.321472L465.002434 691.042945h-36.436809l-10.679755-27.641718h-62.822086L343.755809 691.042945h-35.180368z m0 83.553374h38.949693l-18.846625-47.744785zM515.888324 647.695706a31.411043 31.411043 0 0 0 29.52638 17.590184c15.077301 0 21.359509-6.282209 21.35951-12.564418s-15.705521-13.192638-27.013497-16.961963c-40.206135-11.936196-58.42454-23.872393-58.42454-44.603681s30.154601-42.719018 59.680981-42.719018a62.822086 62.822086 0 0 1 62.822086 36.43681l-37.06503 4.397546a28.89816 28.89816 0 0 0-27.013497-12.564418c-11.307975 0-18.846626 5.025767-18.846626 11.936197s6.910429 11.307975 26.385276 16.961963c36.43681 10.679755 58.42454 23.872393 58.42454 44.603681s-20.103067 43.347239-62.822086 43.347239a69.104294 69.104294 0 0 1-67.219632-40.834356zM669.174214 551.577914v55.283436h62.822085v-55.283436h34.552148V691.042945h-34.552148v-54.655215h-62.822085v55.911657h-35.180369V551.577914z" fill="#ffffff" /><path d="M633.993845 337.982822h180.927608v269.506749h62.822086V316.623313a62.822086 62.822086 0 0 0-19.474847-45.860123l-260.711656-251.288343a62.822086 62.822086 0 0 0-45.231902-18.218405H143.353355S48.492005 8.166871 48.492005 96.117791v829.251534a98.630675 98.630675 0 0 0 98.002454 96.117792h487.499386v-62.822086H146.494459a33.295706 33.295706 0 0 1-32.667485-32.039264V95.489571c0-29.52638 32.667485-31.411043 32.667485-31.411043h390.753374v178.414724c0 88.579141 96.746012 95.489571 96.746012 95.48957z m-32.039263-229.300613l170.876073 165.850306H633.993845s-32.667485 0-32.667484-32.039263z" fill="#ffffff" /><path d="M867.063784 898.355828a26.385276 26.385276 0 1 0-52.770552 0 25.757055 25.757055 0 0 0 13.192638 23.244172v28.89816a13.820859 13.820859 0 1 0 27.013497 0v-31.411043a26.385276 26.385276 0 0 0 12.564417-23.244172z m54.026994 125.644172h-161.452761a53.398773 53.398773 0 0 1-52.770552-52.770552v-113.079755a52.770552 52.770552 0 0 1 52.770552-52.770552h160.82454a52.770552 52.770552 0 0 1 52.770552 52.770552v113.079755a53.398773 53.398773 0 0 1-52.142331 50.257669z" fill="#ffffff" /><path d="M921.718999 814.802454h-21.98773v-52.770552a57.168098 57.168098 0 0 0-57.168098-57.168098h-3.769326a57.168098 57.168098 0 0 0-57.168098 57.168098v53.398773h-21.98773v-53.398773a78.527607 78.527607 0 0 1 79.155828-78.527608h3.769326a78.527607 78.527607 0 0 1 79.155828 78.527608z" fill="#ffffff" /></svg>