<?xml version="1.0" standalone="no"?><!DOCTYPE svg PUBLIC "-//W3C//DTD SVG 1.1//EN" "http://www.w3.org/Graphics/SVG/1.1/DTD/svg11.dtd"><svg class="icon" width="200px" height="200.00px" viewBox="0 0 1024 1024" version="1.1" xmlns="http://www.w3.org/2000/svg"><path d="M656.64 160c74.08 0 134.176 63.616 134.176 142.016v49.664H688.64l13.632 116.224h-53.12l-13.632-116.224H294.4a134.88 134.88 0 0 0 14.816-61.856c0-33.12-11.776-54.656-31.04-77.568h-15.648c-14.816 0-20.896 2.016-30.944 13.504-10.048 11.52-10.56 22.08-9.408 37.664l47.008 545.408H690.56V864H219.52v-0.16C150.688 860.16 96 800.064 96 726.336l0.832-53.536h107.104L169.088 267.072C164.736 209.408 207.808 160 262.528 160H656.64zM208.032 714.752H136.768l-0.096 3.776c0.096 24.64 9.44 47.84 26.4 65.28a88.128 88.128 0 0 0 53.28 26.56l-8.288-95.616z m611.456-194.048c34.976 0 50.176 9.728 57.6 27.456v-24H928v173.12c0 51.488-26.496 84.16-105.664 84.16-17.28 0-38.88-1.76-54.4-4.512v-40c15.168 3.84 33.92 5.568 50.528 5.568 41.344 0 58.656-11.488 58.656-47.296v-10.08c-8.128 16.704-23.328 26.784-57.6 26.784-61.856 0-77.408-38.592-77.408-95.616 0-51.456 15.552-95.584 77.408-95.584z m-199.36 0c66.88 0 82.144 34.208 82.144 82.752 0 10.816-0.704 20.96-1.792 26.176l-123.68 7.68c1.76 26.88 17.76 39.136 51.872 39.136 23.488 0 51.2-6.656 63.648-13.28v39.808c-11.392 6.624-40.16 13.28-73.6 13.28-58.656 0-93.472-21.312-93.472-97.792s34.816-97.76 94.912-97.76z m-227.296-52.16c66.88 0 95.872 21.024 95.872 77.12 0 40.704-14.656 62.432-46.496 71.904L512 711.904h-64.032l-58.336-88.704h-26.816v88.704h-54.4v-243.36h84.448z m441.952 86.912c-35.392 0-39.584 27.936-39.584 58.304v0.96c0.096 31.712 4.896 58.08 39.584 58.08 37.856 0 44.48-21.664 44.48-59.04 0-35.968-6.624-58.304-44.48-58.304z m-212.48 0c-32.064 0-42.88 13.664-43.968 43.456l79.68-5.952c0-20.672-5.056-37.504-35.68-37.504zM384.608 512h-23.04v73.888h21.472c35.936 0 49.344-7.104 49.344-38.4 0-29.44-13.408-35.488-49.344-35.488h1.6z m260.864-303.968h-296.448c12.384 23.264 19.392 50.208 19.392 78.88 0 5.568-0.32 11.168-0.832 16.736H729.6v-5.568c0-24.064-8.8-46.72-24.64-63.68a81.024 81.024 0 0 0-59.52-26.368z" fill="#ffffff" /></svg>