<?xml version="1.0" standalone="no"?><!DOCTYPE svg PUBLIC "-//W3C//DTD SVG 1.1//EN" "http://www.w3.org/Graphics/SVG/1.1/DTD/svg11.dtd"><svg class="icon" width="200px" height="200.00px" viewBox="0 0 1024 1024" version="1.1" xmlns="http://www.w3.org/2000/svg"><path d="M918.4 265.6l-256-256c-6.4-6.4-12.8-9.6-22.4-9.6H192C137.6 0 96 41.6 96 96v832c0 54.4 41.6 96 96 96h640c54.4 0 96-41.6 96-96V288c0-9.6-3.2-16-9.6-22.4zM672 108.8L819.2 256H672V108.8zM864 928c0 19.2-16 32-32 32H192c-19.2 0-32-16-32-32V96c0-19.2 16-32 32-32h416v224c0 19.2 12.8 32 32 32h224v608z" fill="#2c2c2c" /><path d="M438.4 521.6c-12.8-12.8-32-12.8-44.8 0l-128 128c-12.8 12.8-12.8 32 0 44.8l128 128c6.4 6.4 16 9.6 22.4 9.6s16-3.2 22.4-9.6c12.8-12.8 12.8-32 0-44.8L332.8 672l105.6-105.6c12.8-12.8 12.8-32 0-44.8zM585.6 521.6c-12.8 12.8-12.8 32 0 44.8l105.6 105.6-105.6 105.6c-12.8 12.8-12.8 32 0 44.8 6.4 6.4 16 9.6 22.4 9.6s16-3.2 22.4-9.6l128-128c12.8-12.8 12.8-32 0-44.8l-128-128c-12.8-12.8-32-12.8-44.8 0z" fill="#2c2c2c" /></svg>