<?xml version="1.0" standalone="no"?><!DOCTYPE svg PUBLIC "-//W3C//DTD SVG 1.1//EN" "http://www.w3.org/Graphics/SVG/1.1/DTD/svg11.dtd"><svg class="icon" width="200px" height="200.00px" viewBox="0 0 1024 1024" version="1.1" xmlns="http://www.w3.org/2000/svg"><path d="M499.996444 521.671111a30.520889 30.520889 0 0 0-24.433777 10.780445 73.187556 73.187556 0 0 0 0 71.111111 34.702222 34.702222 0 0 0 50.062222 0.227555 60.387556 60.387556 0 0 0 8.874667-37.916444 50.432 50.432 0 0 0-9.272889-33.592889 31.658667 31.658667 0 0 0-25.230223-10.609778zM768 398.222222H85.333333a28.444444 28.444444 0 0 0-28.444444 28.444445v284.444444a28.444444 28.444444 0 0 0 28.444444 28.444445h682.666667a28.444444 28.444444 0 0 0 28.444444-28.444445V426.666667a28.444444 28.444444 0 0 0-28.444444-28.444445zM224.455111 574.833778a139.776 139.776 0 0 1-4.949333 42.410666 48.583111 48.583111 0 0 1-19.911111 24.632889 66.730667 66.730667 0 0 1-38.286223 10.126223 88.661333 88.661333 0 0 1-38.229333-6.656 48.099556 48.099556 0 0 1-20.935111-19.512889 72.988444 72.988444 0 0 1-8.732444-31.715556l48.128-6.570667a54.186667 54.186667 0 0 0 1.877333 16.014223 17.607111 17.607111 0 0 0 6.001778 8.533333 13.880889 13.880889 0 0 0 8.220444 2.104889 13.482667 13.482667 0 0 0 12.373333-6.286222 41.443556 41.443556 0 0 0 3.953778-21.134223V486.4H224.426667v88.490667z m163.868445 50.289778a54.385778 54.385778 0 0 1-24.206223 20.053333 97.991111 97.991111 0 0 1-39.224889 6.826667 80.810667 80.810667 0 0 1-57.571555-16.014223 62.976 62.976 0 0 1-18.090667-40.647111l47.872-3.015111a36.579556 36.579556 0 0 0 6.343111 17.777778 26.595556 26.595556 0 0 0 22.215111 9.898667 24.632889 24.632889 0 0 0 16.611556-5.063112 15.104 15.104 0 0 0 5.831111-11.719111 14.961778 14.961778 0 0 0-5.688889-11.377777 63.800889 63.800889 0 0 0-25.770666-9.443556 109.624889 109.624889 0 0 1-47.217778-19.911111 39.822222 39.822222 0 0 1-14.222222-31.431111 42.666667 42.666667 0 0 1 7.253333-23.722667 48.355556 48.355556 0 0 1 21.902222-17.550222A102.001778 102.001778 0 0 1 324.551111 483.555556a81.948444 81.948444 0 0 1 47.616 11.605333 50.090667 50.090667 0 0 1 19.484445 36.977778l-47.416889 2.844444a22.215111 22.215111 0 0 0-24.689778-21.020444 20.309333 20.309333 0 0 0-13.226667 3.726222 11.377778 11.377778 0 0 0-4.437333 9.073778 9.159111 9.159111 0 0 0 3.669333 6.997333 41.927111 41.927111 0 0 0 16.896 6.001778 212.792889 212.792889 0 0 1 47.274667 14.222222 49.720889 49.720889 0 0 1 20.764444 18.062222 45.511111 45.511111 0 0 1 6.513778 24.120889 51.512889 51.512889 0 0 1-8.675555 28.956445z m186.851555-11.719112a68.664889 68.664889 0 0 1-27.790222 28.444445 91.790222 91.790222 0 0 1-45.283556 10.154667 103.964444 103.964444 0 0 1-45.511111-8.789334 68.807111 68.807111 0 0 1-29.297778-27.761778 92.330667 92.330667 0 0 1-11.207111-47.559111A77.084444 77.084444 0 0 1 500.110222 483.555556a85.134222 85.134222 0 0 1 62.577778 21.845333 82.232889 82.232889 0 0 1 22.016 61.155555 100.494222 100.494222 0 0 1-9.528889 46.848zM768 649.216h-47.445333l-60.984889-89.429333v89.429333h-47.36V486.4h47.018666l61.326223 90.112V486.4H768v162.872889zM739.555556 0H199.111111a28.444444 28.444444 0 0 0-28.444444 28.444444v341.333334h85.333333V85.333333h455.111111v170.666667h170.666667v682.666667H256v-170.666667H170.666667v227.555556a28.444444 28.444444 0 0 0 28.444444 28.444444h739.555556a28.444444 28.444444 0 0 0 28.444444-28.444444V227.555556z" fill="#ffffff" /></svg>