<?xml version="1.0" standalone="no"?><!DOCTYPE svg PUBLIC "-//W3C//DTD SVG 1.1//EN" "http://www.w3.org/Graphics/SVG/1.1/DTD/svg11.dtd"><svg class="icon" width="200px" height="200.00px" viewBox="0 0 1024 1024" version="1.1" xmlns="http://www.w3.org/2000/svg"><path d="M870.4 0H153.6C51.2 0 0 51.2 0 153.6v716.8C0 972.8 51.2 1024 153.6 1024h716.8c102.4 0 153.6-51.2 153.6-153.6V153.6C1024 51.2 972.8 0 870.4 0zM243.2 553.6c0 35.2-6.4 60.8-22.4 80s-35.2 28.8-60.8 28.8c-12.8 0-22.4-3.2-28.8-6.4v-35.2c6.4 6.4 16 9.6 28.8 9.6 32 0 44.8-25.6 44.8-76.8v-185.6h38.4v185.6z m339.2 105.6h-44.8L480 451.2c-3.2-9.6-3.2-19.2-3.2-28.8 0 9.6-3.2 19.2-6.4 28.8l-57.6 211.2h-44.8l-83.2-291.2h41.6l60.8 220.8c3.2 9.6 3.2 19.2 3.2 28.8 0-6.4 3.2-16 6.4-28.8l64-220.8h38.4l60.8 220.8c3.2 6.4 3.2 16 6.4 28.8 0-9.6 3.2-19.2 6.4-28.8l57.6-220.8H672l-89.6 288z m307.2-256h-83.2v256H768v-256h-83.2v-32h204.8v32z" fill="#ffffff" /></svg>