<?xml version="1.0" standalone="no"?><!DOCTYPE svg PUBLIC "-//W3C//DTD SVG 1.1//EN" "http://www.w3.org/Graphics/SVG/1.1/DTD/svg11.dtd"><svg class="icon" width="200px" height="178.71px" viewBox="0 0 1146 1024" version="1.1" xmlns="http://www.w3.org/2000/svg"><path d="M212.90369509 629.55423759c-57.96440018 0-105.49520825-41.73436852-105.49520823-93.90232796v-105.49520825c0-23.18576057 9.27430398-45.21223175 26.66362379-62.60155278 19.70789612-19.70789612 48.6900962-31.30077639 78.83158444-31.30077639 57.96440018 0 105.49520825 41.73436852 105.49520824 93.90232917v105.49520825c0 52.16796065-47.53080805 93.90232796-105.49520824 93.90232796z m0-263.15837713c-22.02647242 0-44.05294361 8.11501583-57.96440018 23.18576056-11.59288028 11.59288028-18.54860797 26.6636238-18.54860797 41.73436851v105.49520825c0 35.93792778 34.77863963 64.92012786 76.51300815 64.92012786 41.73436852 0 76.51300815-28.9822001 76.51300815-64.92012786v-105.49520825c0-35.93792778-33.61935269-64.92012786-76.51300815-64.92012907z" fill="#2c2c2c" /><path d="M243.04518334 431.31598953v105.49520825c0 15.07074352-13.91145658 26.6636238-30.14148825 26.6636238-16.23003167 0-30.14148825-11.59288028-30.14148823-26.6636238v-105.49520825c0-15.07074352 13.91145658-26.6636238 30.14148823-26.663625 17.38931982 0 30.14148825 11.59288028 30.14148825 26.663625zM516.6371526 629.55423759c-57.96440018 0-105.49520825-41.73436852-105.49520945-93.90232796v-105.49520825c0-23.18576057 9.27430398-45.21223175 26.663625-62.60155278 19.70789612-19.70789612 48.6900962-31.30077639 78.83158445-31.30077639 57.96440018 0 105.49520825 41.73436852 105.49520824 93.90232917v105.49520825c0 52.16796065-47.53080805 93.90232796-105.49520824 93.90232796z m0-263.15837713c-22.02647242 0-44.05294361 8.11501583-57.9644014 23.18576056-11.59288028 11.59288028-18.54860797 26.6636238-18.54860796 41.73436851v105.49520825c0 35.93792778 34.77863963 64.92012786 76.51300936 64.92012786 41.73436852 0 76.51300815-28.9822001 76.51300815-64.92012786v-105.49520825c0-35.93792778-33.61935269-64.92012786-76.51300815-64.92012907z" fill="#2c2c2c" /><path d="M546.77863963 431.31598953v105.49520825c0 15.07074352-13.91145658 26.6636238-30.14148703 26.6636238-16.23003167 0-30.14148825-11.59288028-30.14148825-26.6636238v-105.49520825c0-15.07074352 13.91145658-26.6636238 30.14148825-26.663625 17.38931982 0 30.14148825 11.59288028 30.14148703 26.663625zM820.37060889 629.55423759c-57.96440018 0-105.49520825-41.73436852-105.49520824-93.90232796v-105.49520825c0-23.18576057 9.27430398-45.21223175 26.66362379-62.60155278 19.70789612-19.70789612 48.6900962-31.30077639 78.83158445-31.30077639 57.96440018 0 105.49520825 41.73436852 105.49520823 93.90232917v105.49520825c0 52.16796065-47.53080805 93.90232796-105.49520823 93.90232796z m0-263.15837713c-22.02647242 0-44.05294361 8.11501583-57.96440019 23.18576056-11.59288028 11.59288028-18.54860797 26.6636238-18.54860796 41.73436851v105.49520825c0 35.93792778 34.77863963 64.92012786 76.51300815 64.92012786 41.73436852 0 76.51300815-28.9822001 76.51300814-64.92012786v-105.49520825c0-35.93792778-33.61935269-64.92012786-76.51300814-64.92012907z" fill="#2c2c2c" /><path d="M850.51209713 431.31598953v105.49520825c0 15.07074352-13.91145658 26.6636238-30.14148824 26.6636238-16.23003167 0-30.14148825-11.59288028-30.14148824-26.6636238v-105.49520825c0-15.07074352 13.91145658-26.6636238 30.14148824-26.663625 17.38931982 0 30.14148825 11.59288028 30.14148824 26.663625zM668.50388074 959.95131889c-108.97307269 0-197.07896112-77.6722963-197.07896111-172.73391241v-67.23870417h89.26517657v67.23870417c0 24.3450475 10.43359213 46.3715199 30.14148825 63.76083971 20.86718427 17.38931982 47.53080805 26.6636238 76.51300814 26.66362502s55.64582388-9.27430398 76.51300815-26.66362502c15.07074352-13.91145658 25.50433565-30.14148825 28.98220009-48.6900962H690.53035315l129.84025574-112.45093592 129.84025694 112.45093592H864.42355371c-8.11501583 88.10588843-92.74303981 157.66316889-195.91967297 157.6631689zM501.56640787 750.12019056v38.25650407c0 78.83158445 75.35372 143.75171231 168.09676102 143.75171231s168.09676102-63.76083971 168.0967598-143.75171231v-13.91145659h35.937929l-52.16796066-45.21223174-52.16796065 45.21223174h35.937929v13.91145659c0 32.46006454-13.91145658 62.60155278-40.57508038 85.78731213-25.50433565 22.02647242-59.12368833 34.77863963-95.06161611 34.77863963s-69.55728046-11.59288028-95.06161611-34.77863963c-26.6636238-23.18576057-40.57508037-53.3272488-40.57508036-85.78731213v-38.25650407h-32.46006455zM516.6371526 288.72356417l-129.84025695-112.45093593H470.26563148c-3.47786445-18.54860797-13.91145658-35.93792778-28.98220009-48.6900962-20.86718427-17.38931982-47.53080805-26.6636238-76.51300815-26.6636238s-55.64582388 9.27430398-76.51300815 26.6636238c-19.70789612 17.38931982-30.14148825 39.41579222-30.14148824 63.76083971v67.23870417H168.85075027v-67.23870417c0-95.06161611 88.10588843-172.73391241 197.07896112-172.7339124 103.17663195 0 187.80465713 69.55728046 195.91967296 157.66316889h85.78731213L516.6371526 288.72356417z m-52.16796065-83.46873583l52.16796065 45.21223174 52.16795943-45.21223174h-35.93792776v-13.91145659c0-78.83158445-75.35372-143.75171231-168.09676103-143.75171231s-168.09676102 63.76083971-168.09676102 143.75171231v38.25650408h31.30077638v-38.25650408c0-32.46006454 13.91145658-62.60155278 40.57508039-85.78731213 25.50433565-22.02647242 59.12368833-34.77863963 95.0616161-34.77863962 35.93792778 0 69.55728046 11.59288028 95.06161611 34.77863962 26.6636238 23.18576057 40.57508037 53.3272488 40.57508037 85.78731213v13.91145659h-34.77863962z" fill="#2c2c2c" /></svg>