<?xml version="1.0" standalone="no"?><!DOCTYPE svg PUBLIC "-//W3C//DTD SVG 1.1//EN" "http://www.w3.org/Graphics/SVG/1.1/DTD/svg11.dtd"><svg class="icon" width="200px" height="200.00px" viewBox="0 0 1024 1024" version="1.1" xmlns="http://www.w3.org/2000/svg"><path d="M657.890645 544.494933a273.134933 273.134933 0 0 0-147.797333 224.4608l-120.832 120.832a226.645333 226.645333 0 0 1-319.556267 0l-3.754666-3.754666a226.440533 226.440533 0 0 1 0-319.488l142.472533-142.267734c-0.682667 41.847467 6.826667 83.968 22.869333 123.426134L139.268779 639.7952c-47.7184 47.786667-47.7184 125.201067 0 172.919467l3.822933 3.754666c47.786667 47.7184 125.201067 47.7184 173.056 0L519.718912 613.034667c47.7184-47.786667 47.7184-125.201067 0-173.056l-3.8912-3.754667a120.149333 120.149333 0 0 0-24.3712-18.705067l74.410667-74.410666c7.9872 6.075733 15.837867 12.629333 23.210666 20.002133l3.754667 3.6864a226.235733 226.235733 0 0 1 65.058133 177.7664z m105.813334-29.354666a274.2272 274.2272 0 0 0-16.452267 1.570133 313.344 313.344 0 0 0-22.664533-108.7488l91.9552-92.091733c47.7184-47.786667 47.7184-125.201067 0-172.987734l-3.822934-3.754666a122.2656 122.2656 0 0 0-172.8512 0L436.160512 342.698667a122.538667 122.538667 0 0 0 0 173.056l3.822933 3.6864c7.304533 7.236267 15.496533 13.5168 24.302934 18.705066l-74.410667 74.615467a277.640533 277.640533 0 0 1-23.210667-20.002133l-3.754666-3.6864a226.440533 226.440533 0 0 1 0-319.488L566.481579 65.809067a226.5088 226.5088 0 0 1 319.488 0l3.959466 3.822933h-0.136533a226.440533 226.440533 0 0 1 0 319.419733l-126.088533 125.952zM878.323712 836.949333a152.098133 152.098133 0 0 0-188.142933-214.8352l39.185066 39.3216a62.122667 62.122667 0 0 1 0 87.4496 62.122667 62.122667 0 0 1-87.4496 0l-39.253333-39.185066a152.098133 152.098133 0 0 0 214.766933 188.2112l111.342934 111.274666a43.281067 43.281067 0 0 0 61.0304 0 43.2128 43.2128 0 0 0-0.136534-60.893866l-111.274666-111.274667z m82.7392 163.6352a20.616533 20.616533 0 1 1 0-41.1648 20.616533 20.616533 0 0 1 0 41.1648z" fill="#2c2c2c" /></svg>